<svg width="364" height="316" viewBox="0 0 364 316" fill="none" xmlns="http://www.w3.org/2000/svg">
<path d="M325.64 251.869C310.413 327.316 110.166 274.406 34.6153 259.158C-40.9356 243.911 42.6489 201.987 57.8756 126.54C73.1022 51.0934 151.188 20.2117 226.739 35.4593C302.289 50.7069 340.867 176.422 325.64 251.869Z" fill="#FD9C00"/>
<path d="M247 96H130V213H247V96Z" fill="black" stroke="black" stroke-width="4" stroke-linejoin="round"/>
<path d="M233 82H116V199H233V82Z" fill="#FD7600" stroke="black" stroke-width="4" stroke-linejoin="round"/>
<path d="M157 106H174.5C187.482 106 192 115.768 192 123.5C192 131.232 187.482 141 174.5 141H157" stroke="black" stroke-width="20"/>
<path d="M157 182V99" stroke="black" stroke-width="20"/>
<path d="M199 175L157 141" stroke="black" stroke-width="20"/>
</svg>
