<svg width="137" height="200" viewBox="0 0 137 200" fill="none" xmlns="http://www.w3.org/2000/svg">
<path d="M59.96 0.99707C86.9223 18.8583 106.974 36.6603 113.692 56.5791C120.454 76.6276 113.753 99.0038 86.4131 126.024L85.5469 126.88H86.7646C91.3432 126.88 97.1273 126.881 104.637 124.061C112.016 121.289 121.027 115.805 132.218 104.985C134.564 111.734 136.5 118.92 136.5 126.38C136.5 144.201 129.337 161.294 116.585 173.897C103.832 186.501 86.5344 193.583 68.4971 193.583C54.8694 193.582 41.5565 189.535 30.2852 181.967C19.0139 174.399 10.3044 163.659 5.28418 151.141C0.264017 138.623 -0.835047 124.903 2.12891 111.761C5.0929 98.6182 11.9831 86.6575 21.9082 77.4307C34.0191 66.1657 63.9889 45.6961 59.96 0.99707Z" fill="url(#paint0_linear_317_103)" stroke="black"/>
<circle cx="27.5" cy="118.5" r="11.5" fill="white"/>
<circle cx="63.5" cy="118.5" r="11.5" fill="white"/>
<circle cx="28" cy="119" r="8" fill="black"/>
<circle cx="63" cy="119" r="8" fill="black"/>
<path d="M34 158C51.8084 167.998 73.4319 168.447 91.6405 159.199L94 158" stroke="black" stroke-linecap="round"/>
<path d="M36.4069 154.291L31.4069 161.291" stroke="black" stroke-linecap="round"/>
<defs>
<linearGradient id="paint0_linear_317_103" x1="68.5" y1="0" x2="68.5" y2="194.083" gradientUnits="userSpaceOnUse">
<stop stop-color="#FFC488"/>
<stop offset="1" stop-color="#FF9D00"/>
</linearGradient>
</defs>
</svg>
