<svg width="154" height="170" viewBox="0 0 154 170" fill="none" xmlns="http://www.w3.org/2000/svg">
<path d="M54.3634 -5.89326C53.5791 -7.20027 52.1667 -8 50.6424 -8H8.69188C5.31898 -8 3.23564 -4.32041 4.97098 -1.42817L51.8353 76.679C52.6195 77.986 54.0319 78.7857 55.5562 78.7857H97.5067C100.88 78.7857 102.963 75.1061 101.228 72.2139L54.3634 -5.89326Z" fill="#E16104"/>
<path fill-rule="evenodd" clip-rule="evenodd" d="M50.6425 -12.3394H8.69196C1.94616 -12.3394 -2.22054 -4.98017 1.25015 0.804305L48.1144 78.9115C49.6829 81.5255 52.5078 83.1249 55.5563 83.1249H97.5068C104.253 83.1249 108.419 75.7657 104.949 69.9813L58.0843 -8.12587C56.5159 -10.7399 53.691 -12.3394 50.6425 -12.3394ZM50.6425 -8.00007C52.1668 -8.00007 53.5792 -7.20034 54.3634 -5.89333L101.228 72.2138C102.963 75.1061 100.88 78.7856 97.5068 78.7856H55.5563C54.032 78.7856 52.6196 77.9859 51.8353 76.6789L4.97105 -1.42824C3.23572 -4.32048 5.31906 -8.00007 8.69196 -8.00007H50.6425Z" fill="#BD4501"/>
<path d="M99.5674 -5.89326C100.352 -7.20027 101.764 -8 103.288 -8H145.239C148.612 -8 150.695 -4.32041 148.96 -1.42817L102.096 76.679C101.311 77.986 99.8988 78.7857 98.3746 78.7857H56.4241C53.0511 78.7857 50.9678 75.1061 52.7031 72.2139L99.5674 -5.89326Z" fill="#FF8B04"/>
<path fill-rule="evenodd" clip-rule="evenodd" d="M103.288 -12.3394H145.239C151.985 -12.3394 156.151 -4.98017 152.681 0.804305L105.816 78.9115C104.248 81.5255 101.423 83.1249 98.3747 83.1249H56.4241C49.6783 83.1249 45.5116 75.7657 48.9823 69.9813L95.8466 -8.12587C97.415 -10.7399 100.24 -12.3394 103.288 -12.3394ZM103.288 -8.00007C101.764 -8.00007 100.352 -7.20034 99.5675 -5.89333L52.7032 72.2138C50.9678 75.1061 53.0512 78.7856 56.4241 78.7856H98.3747C99.8989 78.7856 101.311 77.9859 102.096 76.6789L148.96 -1.42824C150.695 -4.32048 148.612 -8.00007 145.239 -8.00007H103.288Z" fill="#BD4501"/>
<path fill-rule="evenodd" clip-rule="evenodd" d="M104.091 -5.53685C105.127 -4.93516 105.479 -3.60735 104.877 -2.57111L85.3507 31.0584C84.749 32.0946 83.4212 32.4469 82.3849 31.8452C81.3487 31.2435 80.9964 29.9157 81.5981 28.8794L101.125 -4.75002C101.727 -5.78626 103.054 -6.13854 104.091 -5.53685Z" fill="#FFB053"/>
<path fill-rule="evenodd" clip-rule="evenodd" d="M8.61702 -5.53685C7.58078 -4.93516 7.2285 -3.60735 7.83019 -2.57111L27.357 31.0584C27.9587 32.0946 29.2865 32.4469 30.3227 31.8452C31.359 31.2435 31.7112 29.9157 31.1095 28.8794L11.5828 -4.75002C10.9811 -5.78626 9.65326 -6.13854 8.61702 -5.53685Z" fill="#FA7616"/>
<path d="M49.8449 -0.88079C49.8449 0.654481 48.6307 1.89907 47.1329 1.89907C45.6351 1.89907 44.4208 0.654481 44.4208 -0.88079C44.4208 -2.41606 45.6351 -3.66064 47.1329 -3.66064C48.6307 -3.66064 49.8449 -2.41606 49.8449 -0.88079Z" fill="#C14600"/>
<path d="M40.3196 -0.202776C40.3196 1.70695 38.8093 3.25509 36.9461 3.25509C35.083 3.25509 33.5726 1.70695 33.5726 -0.202776C33.5726 -2.1125 35.083 -3.66064 36.9461 -3.66064C38.8093 -3.66064 40.3196 -2.1125 40.3196 -0.202776Z" fill="#C14600"/>
<path d="M48.7602 9.69615C48.7602 11.6059 47.2498 13.154 45.3867 13.154C43.5235 13.154 42.0131 11.6059 42.0131 9.69615C42.0131 7.78642 43.5235 6.23828 45.3867 6.23828C47.2498 6.23828 48.7602 7.78642 48.7602 9.69615Z" fill="#C14600"/>
<path d="M56.473 4.98382C56.473 5.93868 55.7178 6.71275 54.7862 6.71275C53.8546 6.71275 53.0994 5.93868 53.0994 4.98382C53.0994 4.02895 53.8546 3.25488 54.7862 3.25488C55.7178 3.25488 56.473 4.02895 56.473 4.98382Z" fill="#C14600"/>
<path d="M38.6329 7.96722C38.6329 8.92208 37.8777 9.69615 36.9461 9.69615C36.0145 9.69615 35.2593 8.92208 35.2593 7.96722C35.2593 7.01235 36.0145 6.23828 36.9461 6.23828C37.8777 6.23828 38.6329 7.01235 38.6329 7.96722Z" fill="#C14600"/>
<path d="M54.7862 17.0527C54.7862 18.0075 54.031 18.7816 53.0994 18.7816C52.1678 18.7816 51.4127 18.0075 51.4127 17.0527C51.4127 16.0978 52.1678 15.3237 53.0994 15.3237C54.031 15.3237 54.7862 16.0978 54.7862 17.0527Z" fill="#C14600"/>
<path d="M46.1076 18.7812C46.1076 19.736 45.3524 20.5101 44.4208 20.5101C43.4893 20.5101 42.7341 19.736 42.7341 18.7812C42.7341 17.8263 43.4893 17.0522 44.4208 17.0522C45.3524 17.0522 46.1076 17.8263 46.1076 18.7812Z" fill="#C14600"/>
<path d="M62.9289 12.5096C62.9289 14.0635 61.6999 15.3233 60.1838 15.3233C58.6677 15.3233 57.4387 14.0635 57.4387 12.5096C57.4387 10.9556 58.6677 9.6958 60.1838 9.6958C61.6999 9.6958 62.9289 10.9556 62.9289 12.5096Z" fill="#C14600"/>
<path d="M66.5075 20.5102C66.5075 21.465 65.7523 22.2391 64.8207 22.2391C63.8892 22.2391 63.134 21.465 63.134 20.5102C63.134 19.5553 63.8892 18.7812 64.8207 18.7812C65.7523 18.7812 66.5075 19.5553 66.5075 20.5102Z" fill="#C14600"/>
<path d="M135.545 106.991C135.545 139.344 109.318 165.571 76.9651 165.571C44.6121 165.571 18.3848 139.344 18.3848 106.991C18.3848 74.638 44.6121 48.4106 76.9651 48.4106C109.318 48.4106 135.545 74.638 135.545 106.991Z" fill="#FFBB0D"/>
<path fill-rule="evenodd" clip-rule="evenodd" d="M139.885 106.991C139.885 141.74 111.715 169.911 76.9651 169.911C42.2156 169.911 14.0455 141.74 14.0455 106.991C14.0455 72.2414 42.2156 44.0713 76.9651 44.0713C111.715 44.0713 139.885 72.2414 139.885 106.991ZM76.9651 165.571C109.318 165.571 135.545 139.344 135.545 106.991C135.545 74.6379 109.318 48.4106 76.9651 48.4106C44.6121 48.4106 18.3848 74.6379 18.3848 106.991C18.3848 139.344 44.6121 165.571 76.9651 165.571Z" fill="#E89B05"/>
<path fill-rule="evenodd" clip-rule="evenodd" d="M22.7241 109.161C21.5259 109.161 20.5545 108.189 20.5545 106.991C20.5545 75.8362 45.8104 50.5803 76.9652 50.5803C78.1634 50.5803 79.1348 51.5517 79.1348 52.7499C79.1348 53.9482 78.1634 54.9196 76.9652 54.9196C48.2069 54.9196 24.8938 78.2327 24.8938 106.991C24.8938 108.189 23.9224 109.161 22.7241 109.161Z" fill="#E8AA0A"/>
<path fill-rule="evenodd" clip-rule="evenodd" d="M131.206 104.821C132.404 104.821 133.376 105.793 133.376 106.991C133.376 138.146 108.12 163.402 76.9651 163.402C75.7669 163.402 74.7955 162.43 74.7955 161.232C74.7955 160.034 75.7669 159.062 76.9651 159.062C105.723 159.062 129.037 135.749 129.037 106.991C129.037 105.793 130.008 104.821 131.206 104.821Z" fill="#E8AA0A"/>
<path d="M120.358 106.991C120.358 130.956 100.93 150.384 76.9652 150.384C53 150.384 33.5723 130.956 33.5723 106.991C33.5723 83.0258 53 63.5981 76.9652 63.5981C100.93 63.5981 120.358 83.0258 120.358 106.991Z" fill="#FFDD28"/>
<path fill-rule="evenodd" clip-rule="evenodd" d="M124.697 106.991C124.697 133.353 103.327 154.723 76.9651 154.723C50.6034 154.723 29.233 133.353 29.233 106.991C29.233 80.6292 50.6034 59.2588 76.9651 59.2588C103.327 59.2588 124.697 80.6292 124.697 106.991ZM76.9651 150.384C100.93 150.384 120.358 130.956 120.358 106.991C120.358 83.0257 100.93 63.5981 76.9651 63.5981C52.9999 63.5981 33.5723 83.0257 33.5723 106.991C33.5723 130.956 52.9999 150.384 76.9651 150.384Z" fill="#E89B05"/>
<path fill-rule="evenodd" clip-rule="evenodd" d="M76.9651 143.875C97.3355 143.875 113.849 127.362 113.849 106.991C113.849 105.793 114.82 104.821 116.019 104.821C117.217 104.821 118.188 105.793 118.188 106.991C118.188 129.758 99.732 148.214 76.9651 148.214C75.7668 148.214 74.7954 147.243 74.7954 146.045C74.7954 144.846 75.7668 143.875 76.9651 143.875Z" fill="#ECC704"/>
<path fill-rule="evenodd" clip-rule="evenodd" d="M76.9651 70.1069C56.5947 70.1069 40.0812 86.6204 40.0812 106.991C40.0812 108.189 39.1098 109.16 37.9115 109.16C36.7133 109.16 35.7419 108.189 35.7419 106.991C35.7419 84.2238 54.1981 65.7676 76.9651 65.7676C78.1634 65.7676 79.1347 66.739 79.1347 67.9372C79.1347 69.1355 78.1634 70.1069 76.9651 70.1069Z" fill="#FFEF9C"/>
</svg>
