<svg width="70" height="70" viewBox="0 0 70 70" fill="none" xmlns="http://www.w3.org/2000/svg">
<rect x="13.125" y="13.125" width="49.5833" height="49.5833" fill="black" stroke="black" stroke-width="4" stroke-linejoin="round"/>
<rect x="7.29163" y="7.29175" width="49.5833" height="49.5833" fill="#FD7600" stroke="black" stroke-width="4" stroke-linejoin="round"/>
<g clip-path="url(#clip0_11_961)">
<path d="M29.954 22.21C31.303 21.9271 32.6958 21.9264 34.045 22.208C34.1349 22.8013 34.3574 23.3667 34.6958 23.8621C35.0343 24.3576 35.4801 24.7705 36 25.07C36.5196 25.3705 37.1002 25.55 37.6987 25.5952C38.2973 25.6404 38.8983 25.5501 39.457 25.331C40.3753 26.359 41.0709 27.566 41.5 28.876C41.0314 29.2505 40.6532 29.7259 40.3935 30.2668C40.1338 30.8076 39.9993 31.4 40 32C40 33.264 40.586 34.391 41.502 35.124C41.0704 36.4328 40.3739 37.6389 39.456 38.667C38.8974 38.448 38.2966 38.3578 37.6983 38.403C37.0999 38.4481 36.5195 38.6276 36 38.928C35.4805 39.2274 35.0351 39.6399 34.6968 40.1351C34.3585 40.6302 34.1361 41.1951 34.046 41.788C32.6973 42.0715 31.3044 42.0729 29.955 41.792C29.8656 41.1982 29.6434 40.6322 29.3049 40.1361C28.9664 39.6401 28.5204 39.2268 28 38.927C27.4804 38.6266 26.8997 38.4472 26.3012 38.4022C25.7027 38.3572 25.1018 38.4477 24.543 38.667C23.6246 37.6386 22.9291 36.4313 22.5 35.121C22.9684 34.7466 23.3465 34.2716 23.6062 33.7311C23.8659 33.1906 24.0005 32.5986 24 31.999C24.0005 31.3989 23.8658 30.8063 23.6057 30.2655C23.3457 29.7246 22.9671 29.2494 22.498 28.875C22.9297 27.5661 23.6262 26.3601 24.544 25.332C25.1027 25.5509 25.7035 25.6412 26.3018 25.596C26.9002 25.5508 27.4806 25.3713 28 25.071C28.5196 24.7716 28.965 24.359 29.3033 23.8639C29.6416 23.3688 29.864 22.8028 29.954 22.21ZM32 35C32.7957 35 33.5588 34.6839 34.1214 34.1213C34.684 33.5587 35 32.7956 35 32C35 31.2043 34.684 30.4413 34.1214 29.8787C33.5588 29.316 32.7957 29 32 29C31.2044 29 30.4413 29.316 29.8787 29.8787C29.3161 30.4413 29 31.2043 29 32C29 32.7956 29.3161 33.5587 29.8787 34.1213C30.4413 34.6839 31.2044 35 32 35Z" fill="black"/>
</g>
<defs>
<clipPath id="clip0_11_961">
<rect width="24" height="24" fill="white" transform="translate(20 20)"/>
</clipPath>
</defs>
</svg>
