<svg width="70" height="70" viewBox="0 0 70 70" fill="none" xmlns="http://www.w3.org/2000/svg">
<rect x="13.125" y="13.125" width="49.5833" height="49.5833" fill="black" stroke="black" stroke-width="4" stroke-linejoin="round"/>
<rect x="7.29175" y="7.29175" width="49.5833" height="49.5833" fill="#FD7600" stroke="black" stroke-width="4" stroke-linejoin="round"/>
<path d="M33.1202 37.0228L28.9213 34.7324C28.1914 35.5125 27.1526 36 26 36C23.7909 36 22 34.2091 22 32C22 29.7909 23.7909 28 26 28C27.1525 28 28.1912 28.4875 28.9212 29.2675L33.1202 26.9771C33.0417 26.6644 33 26.3371 33 26C33 23.7909 34.7909 22 37 22C39.2091 22 41 23.7909 41 26C41 28.2091 39.2091 30 37 30C35.8474 30 34.8087 29.5125 34.0787 28.7325L29.8798 31.0228C29.9583 31.3355 30 31.6629 30 32C30 32.3371 29.9583 32.6644 29.8798 32.9771L34.0788 35.2675C34.8087 34.4875 35.8474 34 37 34C39.2091 34 41 35.7909 41 38C41 40.2091 39.2091 42 37 42C34.7909 42 33 40.2091 33 38C33 37.6629 33.0417 37.3355 33.1202 37.0228ZM26 34C27.1046 34 28 33.1046 28 32C28 30.8954 27.1046 30 26 30C24.8954 30 24 30.8954 24 32C24 33.1046 24.8954 34 26 34ZM37 28C38.1046 28 39 27.1046 39 26C39 24.8954 38.1046 24 37 24C35.8954 24 35 24.8954 35 26C35 27.1046 35.8954 28 37 28ZM37 40C38.1046 40 39 39.1046 39 38C39 36.8954 38.1046 36 37 36C35.8954 36 35 36.8954 35 38C35 39.1046 35.8954 40 37 40Z" fill="black"/>
</svg>
